<?xml version="1.0" standalone="no"?>
<!DOCTYPE svg PUBLIC "-//W3C//DTD SVG 20010904//EN"
 "http://www.w3.org/TR/2001/REC-SVG-20010904/DTD/svg10.dtd">
<svg version="1.0" xmlns="http://www.w3.org/2000/svg"
 width="512.000000pt" height="512.000000pt" viewBox="0 0 512.000000 512.000000"
 preserveAspectRatio="xMidYMid meet">

<g transform="translate(0.000000,512.000000) scale(0.100000,-0.100000)"
fill="#000000" stroke="none">
<path d="M453 4667 l-453 -452 2 -1760 3 -1760 22 -41 c31 -59 93 -110 154
-128 37 -11 95 -16 191 -16 l138 0 0 -138 c0 -96 5 -154 16 -191 18 -61 69
-123 128 -154 l41 -22 1610 0 1610 0 46 27 c53 31 94 76 118 128 14 31 16 152
19 1132 l3 1097 382 3 382 3 55 26 c70 33 132 95 167 167 24 49 28 69 28 142
0 71 -4 94 -26 141 -34 72 -96 134 -168 168 l-56 26 -382 3 -382 3 -3 672 -3
672 -30 54 c-63 114 -129 141 -342 141 l-143 0 0 158 c0 150 -1 161 -26 210
-14 29 -42 65 -62 82 -77 63 -4 60 -1356 60 l-1231 0 -452 -453z m2916 268
c16 -8 31 -22 35 -30 3 -9 6 -341 6 -738 l0 -721 -82 81 c-46 44 -110 98 -143
120 -344 231 -782 255 -1143 62 l-74 -39 -700 0 -700 0 -29 -29 c-38 -38 -38
-74 0 -112 l29 -29 596 0 596 0 -63 -78 c-34 -43 -75 -101 -92 -130 l-30 -52
-506 0 c-494 0 -506 0 -527 -20 -29 -27 -37 -63 -20 -96 25 -54 27 -54 522
-54 l458 0 -7 -27 c-18 -73 -35 -161 -35 -190 0 -26 -5 -33 -31 -42 -41 -14
-58 -38 -59 -82 0 -38 28 -74 65 -81 16 -2 21 -17 31 -83 6 -44 16 -98 23
-120 6 -22 11 -43 11 -47 0 -5 -56 -8 -125 -8 -120 0 -127 -1 -150 -25 -38
-37 -37 -88 1 -122 24 -22 33 -23 187 -23 l162 0 44 -71 c24 -39 66 -97 93
-130 l49 -59 -599 0 c-587 0 -599 0 -620 -20 -44 -41 -35 -110 18 -137 19 -10
179 -13 716 -13 l692 0 98 -49 c422 -212 918 -136 1262 193 l82 79 0 -641 0
-640 -31 -26 -31 -26 -1565 2 -1565 3 -24 28 -24 28 0 1680 0 1679 321 0 c223
0 334 4 363 12 55 16 138 99 154 154 8 29 12 140 12 363 l0 321 1160 0 c999 0
1165 -2 1189 -15z m-2519 -365 l0 -251 -25 -24 -24 -25 -253 0 -253 0 275 275
c151 151 276 275 277 275 2 0 3 -113 3 -250z m3030 -145 c20 -10 33 -28 40
-53 7 -25 10 -236 8 -667 l-3 -630 -155 0 -154 0 -18 45 c-15 41 -17 104 -17
676 -1 347 2 634 6 637 3 4 64 7 135 7 95 0 137 -4 158 -15z m-1112 -780 c317
-76 574 -307 678 -613 116 -339 33 -703 -221 -958 -189 -190 -398 -277 -665
-277 -252 -1 -464 84 -650 259 l-73 69 252 5 253 5 25 29 c20 24 24 36 19 65
-11 67 -3 65 -349 71 l-312 5 -17 35 c-30 60 -66 184 -74 248 l-7 62 701 0
701 0 20 26 c28 35 26 77 -3 111 l-24 28 -696 3 -696 2 0 28 c0 43 27 145 61
232 l30 80 223 0 c209 0 223 1 244 20 30 28 38 68 21 99 -25 44 -52 51 -219
51 l-154 0 59 60 c139 141 332 239 530 270 79 12 264 4 343 -15z m2092 -768
c75 -40 109 -133 76 -210 -16 -39 -61 -82 -99 -96 -19 -7 -220 -11 -600 -11
l-572 0 0 170 0 170 576 0 576 0 43 -23z m-932 -1542 c1 -577 0 -1065 -3
-1084 -4 -18 -17 -44 -30 -57 l-24 -24 -1565 0 -1565 0 -28 24 c-28 24 -28 24
-31 170 l-3 146 1328 0 c730 0 1345 3 1366 6 61 11 138 63 172 118 l30 49 5
816 c4 667 8 823 19 854 l15 37 155 -2 156 -3 3 -1050z"/>
<path d="M562 2805 c-55 -24 -66 -91 -22 -135 19 -19 34 -20 269 -20 279 0
286 2 297 71 5 29 1 41 -19 65 l-25 29 -234 2 c-186 2 -240 0 -266 -12z"/>
<path d="M539 2361 c-38 -38 -38 -74 0 -112 l29 -29 157 0 157 0 29 29 c17 18
29 40 29 56 0 16 -12 38 -29 56 l-29 29 -157 0 -157 0 -29 -29z"/>
<path d="M562 1525 c-55 -24 -66 -91 -22 -135 19 -19 35 -20 313 -20 l294 0
21 23 c31 33 29 87 -4 118 l-26 24 -271 2 c-219 2 -278 0 -305 -12z"/>
<path d="M1513 1533 c-37 -7 -66 -52 -59 -93 9 -55 36 -70 123 -70 88 0 108 9
123 54 27 84 -58 134 -187 109z"/>
<path d="M2518 3314 c-48 -25 -54 -94 -12 -131 25 -23 30 -23 270 -23 l245 0
24 25 c37 36 34 86 -6 119 l-31 26 -231 0 c-186 -1 -237 -4 -259 -16z"/>
<path d="M2672 2277 c-28 -30 -30 -89 -3 -116 28 -28 69 -33 220 -29 131 3
133 3 157 31 31 37 31 81 -1 112 -24 25 -27 25 -188 25 -158 0 -164 -1 -185
-23z"/>
</g>
</svg>
